<?xml version="1.0" encoding="UTF-8"?><svg id="Layer_1" xmlns="http://www.w3.org/2000/svg" viewBox="0 0 85 85"><defs><style>.cls-1{fill:#10298e;}.cls-2{fill:#e1e1e1;}.cls-3{fill:#ffbe00;}</style></defs><rect class="cls-2" width="85" height="85" rx="20" ry="20"/><g><path id="path5457" class="cls-1" d="M12.57,52.33v-2.14h1.58v.36h-1.15v.47h1.07v.36h-1.07v.58h1.19v.36h-1.62Z"/><path id="path5459" class="cls-1" d="M14.58,50.2h.41v.38h-.41v-.38Zm0,.59h.41v1.55h-.41v-1.55Z"/><path id="path5471" class="cls-1" d="M16.84,52.33h-.41v-.79c0-.17,0-.28-.03-.32-.02-.05-.05-.09-.09-.11-.04-.03-.09-.04-.14-.04-.07,0-.13,.02-.19,.06-.06,.04-.1,.09-.12,.15-.02,.06-.03,.18-.03,.36v.7h-.41v-1.55h.38v.23c.14-.17,.31-.26,.51-.26,.09,0,.17,.02,.25,.05,.07,.03,.13,.07,.17,.12,.04,.05,.07,.11,.08,.17,.02,.06,.02,.16,.02,.28v.96Z"/><path id="path5475" class="cls-1" d="M17.68,50.2v.79c.13-.15,.29-.23,.47-.23,.09,0,.18,.02,.25,.05,.08,.03,.13,.08,.17,.13,.04,.05,.06,.11,.08,.18,.01,.07,.02,.17,.02,.31v.91h-.41v-.82c0-.16,0-.27-.02-.31-.02-.04-.04-.08-.08-.1-.04-.03-.09-.04-.15-.04-.07,0-.13,.02-.18,.05-.05,.03-.09,.08-.12,.15-.02,.07-.04,.17-.04,.3v.78h-.41v-2.14h.41Z"/><path id="path5479" class="cls-1" d="M20.01,51.84l.41,.07c-.05,.15-.14,.26-.25,.34-.11,.08-.25,.12-.42,.12-.27,0-.47-.09-.6-.26-.1-.14-.15-.32-.15-.53,0-.26,.07-.46,.2-.6,.13-.15,.3-.22,.51-.22,.23,0,.41,.08,.54,.23,.13,.15,.2,.38,.19,.7h-1.03c0,.12,.04,.22,.1,.28,.06,.07,.14,.1,.24,.1,.06,0,.12-.02,.16-.05,.04-.04,.08-.09,.1-.17m.02-.41c0-.12-.03-.21-.09-.27-.06-.06-.13-.09-.21-.09-.09,0-.16,.03-.22,.1-.06,.06-.09,.15-.09,.27h.61Z"/><path id="path5481" class="cls-1" d="M20.8,50.2h.41v.38h-.41v-.38Zm0,.59h.41v1.55h-.41v-1.55Z"/><path id="path5485" class="cls-1" d="M22.36,50.79v.33h-.28v.62c0,.13,0,.2,0,.22l.04,.05,.07,.02s.09-.01,.16-.04l.04,.32c-.1,.04-.2,.06-.32,.06-.07,0-.14-.01-.2-.04-.06-.02-.1-.06-.13-.1-.03-.04-.05-.09-.06-.16,0-.05-.01-.14-.01-.29v-.67h-.19v-.33h.19v-.31l.41-.24v.55h.28Z"/><path id="path5487" class="cls-1" d="M22.66,50.2h.41v2.14h-.41v-2.14Z"/><path id="path5489" class="cls-1" d="M23.51,50.2h.41v.38h-.41v-.38Zm0,.59h.41v1.55h-.41v-1.55Z"/><path id="path5493" class="cls-1" d="M25.71,51.24l-.4,.07c-.01-.08-.04-.14-.09-.18-.05-.04-.11-.06-.19-.06-.1,0-.18,.04-.24,.11-.06,.07-.09,.19-.09,.35,0,.18,.03,.31,.09,.39s.14,.11,.25,.11c.08,0,.14-.02,.19-.07s.08-.12,.11-.23l.4,.07c-.04,.18-.12,.32-.24,.42-.12,.09-.28,.14-.48,.14-.23,0-.41-.07-.54-.21-.13-.14-.2-.34-.2-.59s.07-.45,.2-.6c.14-.14,.32-.21,.55-.21,.19,0,.34,.04,.45,.12,.11,.08,.19,.2,.24,.37"/><path id="path5497" class="cls-1" d="M26.45,50.2v.79c.13-.15,.29-.23,.47-.23,.09,0,.18,.02,.25,.05,.08,.03,.13,.08,.17,.13,.04,.05,.06,.11,.08,.18,.01,.07,.02,.17,.02,.31v.91h-.41v-.82c0-.16,0-.27-.02-.31-.02-.04-.04-.08-.08-.1-.04-.03-.09-.04-.15-.04-.07,0-.13,.02-.18,.05-.05,.03-.09,.08-.12,.15-.02,.07-.04,.17-.04,.3v.78h-.41v-2.14h.41Z"/><path id="path5501" class="cls-1" d="M28.78,51.84l.41,.07c-.05,.15-.14,.26-.25,.34-.11,.08-.25,.12-.42,.12-.27,0-.47-.09-.6-.26-.1-.14-.15-.32-.15-.53,0-.26,.07-.46,.2-.6,.13-.15,.3-.22,.51-.22,.23,0,.41,.08,.54,.23,.13,.15,.2,.38,.19,.7h-1.03c0,.12,.04,.22,.1,.28,.06,.07,.14,.1,.24,.1,.06,0,.12-.02,.16-.05,.04-.04,.08-.09,.1-.17m.02-.41c0-.12-.03-.21-.09-.27-.06-.06-.13-.09-.21-.09-.09,0-.16,.03-.22,.1-.06,.06-.09,.15-.09,.27h.61Z"/><path id="path5505" class="cls-1" d="M29.96,52.33h-.41v-1.55h.38v.22c.07-.1,.12-.17,.18-.21,.05-.03,.11-.05,.18-.05,.09,0,.18,.03,.27,.08l-.13,.36c-.07-.04-.13-.07-.19-.07s-.11,.02-.15,.05c-.04,.03-.07,.09-.09,.17-.02,.08-.03,.26-.03,.52v.48Z"/><path id="path5509" class="cls-1" d="M31.6,52.33v-2.14h1.58v.36h-1.15v.47h1.07v.36h-1.07v.58h1.19v.36h-1.62Z"/><path id="path5513" class="cls-1" d="M34.63,52.33v-.23c-.06,.08-.13,.15-.22,.19-.09,.05-.19,.07-.29,.07s-.2-.02-.28-.07c-.08-.05-.14-.11-.18-.19-.04-.08-.06-.2-.06-.34v-.98h.41v.71c0,.22,0,.35,.02,.4,.02,.05,.04,.09,.08,.12,.04,.03,.09,.04,.15,.04,.07,0,.13-.02,.19-.06,.06-.04,.09-.09,.11-.14,.02-.06,.03-.2,.03-.42v-.65h.41v1.55h-.38Z"/><path id="path5517" class="cls-1" d="M35.84,52.33h-.41v-1.55h.38v.22c.07-.1,.12-.17,.18-.21,.05-.03,.11-.05,.18-.05,.09,0,.18,.03,.27,.08l-.13,.36c-.07-.04-.13-.07-.19-.07s-.11,.02-.15,.05c-.04,.03-.07,.09-.09,.17-.02,.08-.03,.26-.03,.52v.48Z"/><path id="path5521" class="cls-1" d="M36.54,51.54c0-.14,.03-.27,.1-.4,.07-.13,.16-.22,.28-.29,.12-.07,.26-.1,.41-.1,.23,0,.43,.08,.58,.23,.15,.15,.22,.34,.22,.58s-.08,.43-.23,.58-.34,.23-.57,.23c-.14,0-.28-.03-.41-.1-.13-.06-.23-.16-.29-.28-.07-.12-.1-.27-.1-.45m.42,.02c0,.15,.04,.27,.11,.35,.07,.08,.16,.12,.27,.12s.2-.04,.27-.12c.07-.08,.11-.2,.11-.36s-.04-.27-.11-.35c-.07-.08-.16-.12-.27-.12s-.2,.04-.27,.12c-.07,.08-.11,.2-.11,.35"/><path id="path5523" class="cls-1" d="M38.43,51.35h.8v.41h-.8v-.41Z"/><path id="path5527" class="cls-1" d="M39.31,52.33v-.39l1.12-1.39h-1v-.36h1.56v.34l-1.17,1.44h1.21v.36h-1.74Z"/><path id="path5531" class="cls-1" d="M41.64,51.26l-.37-.07c.04-.15,.11-.26,.22-.33,.1-.07,.25-.11,.45-.11,.18,0,.32,.02,.41,.06,.09,.04,.15,.1,.19,.16,.04,.07,.05,.19,.05,.37v.48c0,.14,0,.24,.02,.3,.01,.06,.04,.13,.07,.21h-.4s-.02-.07-.04-.12v-.05c-.08,.07-.16,.12-.24,.15-.08,.03-.16,.05-.25,.05-.16,0-.28-.04-.38-.13-.09-.09-.14-.2-.14-.33,0-.09,.02-.17,.06-.23,.04-.07,.1-.12,.18-.16s.18-.07,.33-.1c.19-.04,.32-.07,.4-.1v-.04c0-.08-.02-.13-.06-.17-.04-.03-.11-.05-.22-.05-.07,0-.13,.01-.17,.04-.04,.03-.07,.08-.1,.15m.55,.33c-.05,.02-.14,.04-.25,.06-.11,.02-.19,.05-.22,.07-.05,.04-.08,.09-.08,.14s.02,.11,.06,.15c.04,.04,.1,.06,.16,.06,.07,0,.14-.02,.21-.07,.05-.04,.08-.08,.1-.14,.01-.04,.02-.1,.02-.2v-.08Z"/><path id="path5535" class="cls-1" d="M43.42,50.2v.79c.13-.15,.29-.23,.47-.23,.09,0,.18,.02,.25,.05,.08,.03,.13,.08,.17,.13,.04,.05,.06,.11,.08,.18,.01,.07,.02,.17,.02,.31v.91h-.41v-.82c0-.16,0-.27-.02-.31-.02-.04-.04-.08-.08-.1-.04-.03-.09-.04-.15-.04-.07,0-.13,.02-.18,.05-.05,.03-.09,.08-.12,.15-.02,.07-.04,.17-.04,.3v.78h-.41v-2.14h.41Z"/><path id="path5537" class="cls-1" d="M44.86,50.2h.41v2.14h-.41v-2.14Z"/><path id="path5541" class="cls-1" d="M46.73,52.33v-.23c-.06,.08-.13,.15-.22,.19-.09,.05-.19,.07-.29,.07s-.2-.02-.28-.07c-.08-.05-.14-.11-.18-.19-.04-.08-.06-.2-.06-.34v-.98h.41v.71c0,.22,0,.35,.02,.4,.01,.05,.04,.09,.08,.12,.04,.03,.09,.04,.15,.04,.07,0,.13-.02,.19-.06,.06-.04,.09-.09,.11-.14,.02-.06,.03-.2,.03-.42v-.65h.41v1.55h-.38Z"/><path id="path5545" class="cls-1" d="M48.96,52.33h-.41v-.79c0-.17,0-.28-.03-.32-.02-.05-.05-.09-.09-.11-.04-.03-.09-.04-.14-.04-.07,0-.13,.02-.19,.06-.06,.04-.09,.09-.12,.15-.02,.06-.03,.18-.03,.36v.7h-.41v-1.55h.38v.23c.14-.17,.3-.26,.51-.26,.09,0,.17,.02,.25,.05,.07,.03,.13,.07,.17,.12,.04,.05,.06,.11,.08,.17,.01,.06,.02,.16,.02,.28v.96Z"/><path id="path5549" class="cls-1" d="M49.36,52.44l.47,.06c0,.05,.03,.09,.05,.11,.04,.03,.1,.04,.18,.04,.11,0,.19-.02,.24-.05,.04-.02,.06-.06,.08-.1,.01-.03,.02-.1,.02-.19v-.23c-.12,.17-.28,.25-.46,.25-.21,0-.37-.09-.49-.26-.09-.14-.14-.31-.14-.52,0-.26,.06-.46,.19-.59,.12-.14,.28-.21,.47-.21s.35,.08,.47,.25v-.22h.38v1.39c0,.18-.01,.32-.04,.41-.03,.09-.07,.16-.13,.21-.05,.05-.13,.09-.22,.12-.09,.03-.21,.04-.34,.04-.26,0-.45-.04-.56-.13-.11-.09-.16-.2-.16-.34v-.05Zm.37-.91c0,.16,.03,.28,.1,.36,.06,.08,.14,.11,.24,.11,.1,0,.18-.04,.25-.12s.1-.19,.1-.35-.03-.28-.1-.36c-.07-.08-.15-.12-.25-.12s-.18,.04-.24,.11c-.06,.08-.1,.19-.1,.35"/><path id="path5553" class="cls-1" d="M51.09,51.89l.41-.06c.02,.08,.05,.14,.11,.18s.13,.06,.22,.06c.11,0,.19-.02,.24-.06,.04-.03,.05-.06,.05-.11l-.03-.08s-.07-.04-.14-.05c-.33-.07-.54-.14-.63-.2-.12-.08-.18-.2-.18-.35,0-.13,.05-.25,.16-.34,.11-.09,.27-.14,.49-.14s.37,.03,.47,.1c.1,.07,.17,.17,.21,.31l-.39,.07c-.02-.06-.05-.11-.09-.14-.05-.03-.11-.05-.2-.05-.11,0-.18,.02-.23,.05l-.05,.08,.04,.07s.16,.07,.38,.12c.22,.05,.37,.11,.46,.18,.09,.07,.13,.17,.13,.3,0,.14-.06,.26-.18,.37-.12,.1-.29,.15-.53,.15-.21,0-.38-.04-.5-.13-.12-.09-.2-.2-.24-.35"/><path id="path5557" class="cls-1" d="M53.34,52.33l-.62-1.55h.43l.29,.79,.08,.26c.02-.07,.04-.11,.04-.13,.01-.04,.03-.09,.04-.13l.29-.79h.42l-.61,1.55h-.37Z"/><path id="path5561" class="cls-1" d="M55.5,51.84l.41,.07c-.05,.15-.14,.26-.25,.34-.11,.08-.25,.12-.42,.12-.27,0-.47-.09-.6-.26-.1-.14-.15-.32-.15-.53,0-.26,.07-.46,.2-.6,.13-.15,.3-.22,.51-.22,.23,0,.41,.08,.54,.23,.13,.15,.2,.38,.19,.7h-1.03c0,.12,.04,.22,.1,.28,.06,.07,.14,.1,.24,.1,.06,0,.12-.02,.16-.05,.04-.04,.08-.09,.1-.17m.02-.41c0-.12-.03-.21-.09-.27-.06-.06-.13-.09-.21-.09-.09,0-.16,.03-.22,.1-.06,.06-.09,.15-.09,.27h.61Z"/><path id="path5565" class="cls-1" d="M56.67,52.33h-.41v-1.55h.38v.22c.07-.1,.12-.17,.18-.21,.05-.03,.11-.05,.18-.05,.09,0,.18,.03,.27,.08l-.13,.36c-.07-.04-.13-.07-.19-.07s-.11,.02-.15,.05c-.04,.03-.07,.09-.09,.17-.02,.08-.03,.26-.03,.52v.48Z"/><path id="path5569" class="cls-1" d="M57.45,52.33v-2.14h.41v1.13l.48-.54h.5l-.53,.57,.57,.98h-.44l-.39-.7-.19,.2v.5h-.41Z"/><path id="path5573" class="cls-1" d="M60.04,51.84l.41,.07c-.05,.15-.14,.26-.25,.34-.11,.08-.25,.12-.42,.12-.27,0-.47-.09-.6-.26-.1-.14-.15-.32-.15-.53,0-.26,.07-.46,.2-.6,.13-.15,.3-.22,.51-.22,.23,0,.41,.08,.54,.23,.13,.15,.2,.38,.19,.7h-1.03c0,.12,.04,.22,.1,.28,.06,.07,.14,.1,.24,.1,.06,0,.12-.02,.16-.05,.04-.04,.08-.09,.1-.17m.02-.41c0-.12-.03-.21-.09-.27-.06-.06-.13-.09-.21-.09-.09,0-.16,.03-.22,.1-.06,.06-.09,.15-.09,.27h.61Z"/><path id="path5577" class="cls-1" d="M61.23,50.2v.79c.13-.15,.29-.23,.47-.23,.09,0,.18,.02,.25,.05,.08,.03,.13,.08,.17,.13,.04,.05,.06,.11,.08,.18,.01,.07,.02,.17,.02,.31v.91h-.41v-.82c0-.16,0-.27-.02-.31-.02-.04-.04-.08-.08-.1-.04-.03-.09-.04-.15-.04-.07,0-.13,.02-.18,.05-.05,.03-.09,.08-.12,.15-.02,.07-.04,.17-.04,.3v.78h-.41v-2.14h.41Z"/><path id="path5581" class="cls-1" d="M63.06,52.33h-.41v-1.55h.38v.22c.07-.1,.12-.17,.18-.21,.05-.03,.11-.05,.18-.05,.09,0,.18,.03,.27,.08l-.13,.36c-.07-.04-.13-.07-.19-.07s-.11,.02-.15,.05c-.04,.03-.07,.09-.09,.17-.02,.08-.03,.26-.03,.52v.48Z"/><path id="path5585" class="cls-1" d="M63.7,51.89l.41-.06c.02,.08,.05,.14,.11,.18s.13,.06,.22,.06c.11,0,.19-.02,.24-.06,.04-.03,.05-.06,.05-.11l-.03-.08s-.07-.04-.14-.05c-.33-.07-.54-.14-.63-.2-.12-.08-.18-.2-.18-.35,0-.13,.05-.25,.16-.34,.11-.09,.27-.14,.49-.14s.37,.03,.47,.1c.1,.07,.17,.17,.21,.31l-.39,.07c-.02-.06-.05-.11-.09-.14-.05-.03-.11-.05-.2-.05-.11,0-.18,.02-.23,.05l-.05,.08,.04,.07s.16,.07,.38,.12c.22,.05,.37,.11,.46,.18,.09,.07,.13,.17,.13,.3,0,.14-.06,.26-.18,.37-.12,.1-.29,.15-.53,.15-.21,0-.38-.04-.5-.13s-.2-.2-.24-.35"/><path id="path5589" class="cls-1" d="M65.92,52.33h-.41v-1.55h.38v.22c.07-.1,.12-.17,.18-.21,.05-.03,.11-.05,.18-.05,.09,0,.18,.03,.27,.08l-.13,.36c-.07-.04-.13-.07-.19-.07s-.11,.02-.15,.05c-.04,.03-.07,.09-.09,.17-.02,.08-.03,.26-.03,.52v.48Z"/><path id="path5593" class="cls-1" d="M67.02,51.26l-.37-.07c.04-.15,.11-.26,.22-.33,.1-.07,.25-.11,.45-.11,.18,0,.32,.02,.41,.06,.09,.04,.15,.1,.19,.16,.04,.07,.05,.19,.05,.37v.48c0,.14,0,.24,.02,.3,.01,.06,.04,.13,.07,.21h-.4s-.02-.07-.04-.12v-.05c-.08,.07-.16,.12-.24,.15-.08,.03-.16,.05-.25,.05-.16,0-.28-.04-.38-.13-.09-.09-.14-.2-.14-.33,0-.09,.02-.17,.06-.23,.04-.07,.1-.12,.18-.16,.07-.04,.18-.07,.33-.1,.19-.04,.32-.07,.4-.1v-.04c0-.08-.02-.13-.06-.17-.04-.03-.11-.05-.22-.05-.07,0-.13,.01-.17,.04-.04,.03-.07,.08-.1,.15m.55,.33c-.05,.02-.14,.04-.25,.06-.11,.02-.19,.05-.22,.07-.05,.04-.08,.09-.08,.14s.02,.11,.06,.15c.04,.04,.1,.06,.16,.06,.07,0,.14-.02,.21-.07,.05-.04,.08-.08,.1-.14,.01-.04,.02-.1,.02-.2v-.08Z"/><path id="path5597" class="cls-1" d="M69.41,52.33v-.23c-.06,.08-.13,.15-.22,.19-.09,.05-.19,.07-.29,.07s-.2-.02-.28-.07c-.08-.05-.14-.11-.18-.19-.04-.08-.06-.2-.06-.34v-.98h.41v.71c0,.22,0,.35,.02,.4,.02,.05,.04,.09,.08,.12,.04,.03,.09,.04,.15,.04,.07,0,.13-.02,.19-.06,.06-.04,.09-.09,.11-.14,.02-.06,.03-.2,.03-.42v-.65h.41v1.55h-.38Z"/><path id="path5601" class="cls-1" d="M70.2,50.79h.38v.21c.14-.16,.3-.25,.48-.25,.1,0,.19,.02,.26,.06,.07,.04,.13,.1,.18,.19,.07-.08,.14-.14,.22-.19,.08-.04,.16-.06,.25-.06,.11,0,.21,.02,.29,.07s.14,.11,.18,.2c.03,.07,.04,.17,.04,.32v.99h-.41v-.88c0-.15-.01-.25-.04-.3-.04-.06-.1-.09-.17-.09-.06,0-.11,.02-.16,.05-.05,.03-.09,.09-.11,.15-.02,.07-.03,.17-.03,.32v.74h-.41v-.85c0-.15,0-.25-.02-.29-.01-.04-.04-.08-.07-.1-.03-.02-.07-.03-.12-.03-.06,0-.12,.02-.17,.05-.05,.03-.09,.08-.11,.15-.02,.06-.03,.17-.03,.32v.75h-.41v-1.55Z"/><path id="path5689" class="cls-1" d="M25.83,37.27h-4.11c0-.67-.08-1.13-.24-1.36-.24-.34-.92-.51-2.02-.51s-1.78,.1-2.13,.29c-.35,.2-.52,.63-.52,1.28,0,.6,.15,.99,.46,1.18,.22,.13,.51,.21,.88,.24l.83,.06c1.77,.12,2.88,.2,3.32,.25,1.4,.14,2.42,.51,3.05,1.12,.5,.47,.79,1.09,.89,1.85,.06,.46,.08,.97,.08,1.54,0,1.32-.13,2.29-.38,2.9-.46,1.12-1.48,1.83-3.08,2.13-.67,.13-1.69,.19-3.07,.19-2.3,0-3.9-.14-4.81-.41-1.11-.34-1.84-1.02-2.2-2.05-.2-.57-.3-1.53-.3-2.86h4.11c0,.15,0,.26,0,.34,0,.71,.2,1.17,.61,1.37,.28,.14,.62,.21,1.03,.22h1.51c.77,0,1.26-.04,1.47-.12,.38-.15,.63-.39,.74-.72,.06-.2,.09-.47,.09-.79,0-.72-.26-1.16-.79-1.32-.2-.06-1.11-.15-2.75-.26-1.31-.09-2.22-.18-2.73-.27-1.34-.25-2.24-.77-2.69-1.55-.39-.67-.59-1.68-.59-3.03,0-1.03,.11-1.85,.32-2.47,.21-.62,.55-1.09,1.03-1.41,.69-.49,1.58-.78,2.66-.87,.9-.08,1.89-.12,2.99-.12,1.72,0,2.95,.1,3.68,.3,1.79,.48,2.68,1.82,2.68,4.03,0,.18-.01,.45-.04,.81"/><path id="path5693" class="cls-1" d="M43.88,48.43v-16.4h8.22c1.13,0,1.99,.09,2.58,.28,1.35,.42,2.26,1.29,2.72,2.6,.24,.69,.36,1.72,.36,3.11,0,1.66-.13,2.86-.4,3.59-.53,1.44-1.61,2.27-3.25,2.48-.19,.03-1.01,.06-2.46,.08l-.73,.02h-2.63v4.23h-4.41Zm4.41-8.04h2.75c.87-.03,1.4-.1,1.59-.2,.26-.14,.44-.43,.52-.86,.06-.29,.08-.71,.08-1.28,0-.69-.06-1.21-.17-1.54-.16-.47-.54-.76-1.14-.86-.12-.02-.4-.02-.86-.02h-2.79v4.77Z"/><path id="path5697" class="cls-1" d="M67.19,45.6h-5.9l-.79,2.83h-4.57l4.93-16.4h6.66l4.99,16.4h-4.47l-.84-2.83Zm-.88-3.19l-2.07-7.11-2.01,7.11h4.07Z"/><path id="path5701" class="cls-3" d="M37.79,34.35c1.82,0,3.44,.84,4.51,2.15l.95-2.04c-1.49-1.41-3.51-2.27-5.75-2.27-3.48,0-6.45,2.1-7.67,5.07h-1.85l-1.1,2.35h2.39c-.02,.22-.03,.44-.03,.66,0,.27,.01,.54,.04,.8h-1.2l-1.09,2.35h2.9c1.26,2.9,4.19,4.93,7.62,4.93,1.72,0,3.33-.52,4.65-1.4v-2.88c-1.07,1.22-2.63,1.98-4.37,1.98-2.03,0-3.82-1.05-4.87-2.64h6.08l1.1-2.35h-8.07c-.04-.28-.06-.57-.06-.87,0-.2,.01-.4,.03-.59h8.78l1.09-2.35h-9.12c1.01-1.74,2.89-2.91,5.04-2.91"/><path id="path5705" class="cls-1" d="M37.79,34.42c1.73,0,3.36,.78,4.46,2.13l.07,.09,.05-.1,.95-2.04,.02-.05-.04-.04c-1.56-1.48-3.62-2.29-5.79-2.29-1.7,0-3.33,.5-4.72,1.43-1.36,.92-2.4,2.19-3.02,3.68l.06-.04h-1.9l-.02,.04-1.09,2.35-.05,.1h2.5l-.07-.08c-.02,.24-.03,.46-.03,.66,0,.26,.01,.53,.04,.8l.07-.08h-1.24l-.02,.04-1.1,2.35-.05,.1h3.01l-.06-.04c1.31,3.02,4.32,4.97,7.68,4.97,1.68,0,3.3-.49,4.69-1.41l.03-.02v-3.1l-.12,.14c-1.09,1.24-2.67,1.96-4.32,1.96-1.94,0-3.74-.97-4.81-2.6l-.06,.11h6.13l.02-.04,1.1-2.35,.05-.1h-8.18l.07,.06c-.04-.28-.06-.57-.06-.86,0-.19,0-.39,.03-.58l-.07,.06h8.83l.02-.04,1.09-2.35,.05-.1h-9.23l.06,.11c1.03-1.77,2.93-2.88,4.97-2.88m-5.04,2.91h9.12l-.06-.1-1.09,2.35,.06-.04h-8.85v.06c-.03,.2-.04,.4-.04,.6,0,.29,.02,.59,.06,.88v.06h8.14l-.06-.1-1.09,2.35,.06-.04h-6.21l.07,.11c1.1,1.67,2.94,2.67,4.92,2.67,1.69,0,3.3-.73,4.42-2.01l-.12-.05v2.88l.03-.06c-1.36,.91-2.96,1.39-4.61,1.39-3.3,0-6.26-1.92-7.55-4.89l-.02-.04h-2.95l.06,.1,1.09-2.35-.06,.04h1.28v-.08c-.03-.27-.05-.53-.05-.79,0-.2,0-.41,.03-.65v-.08h-2.46l.06,.1,1.1-2.35-.06,.04h1.9l.02-.04c.6-1.47,1.63-2.72,2.96-3.62,1.37-.92,2.97-1.41,4.64-1.41,2.14,0,4.16,.8,5.7,2.25l-.02-.08-.95,2.04h.12c-1.13-1.4-2.79-2.19-4.57-2.19-2.09,0-4.04,1.13-5.1,2.95l-.06,.11h.12Z"/></g></svg>
