<?xml version="1.0" standalone="no"?>
<!DOCTYPE svg PUBLIC "-//W3C//DTD SVG 1.0//EN" "http://www.w3.org/TR/2001/REC-SVG-20010904/DTD/svg10.dtd">
<svg xmlns="http://www.w3.org/2000/svg" xmlns:xlink="http://www.w3.org/1999/xlink" id="body_1" width="1024" height="768">

<g transform="matrix(1 0 0 1 0 0)">
	<g transform="matrix(9.0352955 0 0 9.0352955 128.00003 -0)">
        <path d="M0 20C 0 8.954305 8.954305 0 20 0L20 0L65 0C 76.04569 0 85 8.954305 85 20L85 20L85 65C 85 76.04569 76.04569 85 65 85L65 85L20 85C 8.954305 85 0 76.04569 0 65L0 65L0 20z" stroke="none" fill="#E1E1E1" fill-rule="nonzero" />
		<g>
            <path d="M12.57 52.33L12.57 50.190002L14.15 50.190002L14.15 50.550003L13 50.550003L13 51.020004L14.07 51.020004L14.07 51.380005L13 51.380005L13 51.960007L14.190001 51.960007L14.190001 52.320007L12.570001 52.320007L12.57 52.33z" stroke="none" fill="#10298E" fill-rule="nonzero" />
            <path d="M14.58 50.2L14.99 50.2L14.99 50.58L14.58 50.58L14.58 50.2zM14.58 50.79L14.99 50.79L14.99 52.34L14.58 52.34L14.58 50.79z" stroke="none" fill="#10298E" fill-rule="nonzero" />
            <path d="M16.84 52.33L16.43 52.33L16.43 51.54C 16.43 51.370003 16.43 51.260002 16.4 51.22C 16.38 51.170002 16.35 51.13 16.31 51.11C 16.269999 51.08 16.22 51.07 16.17 51.07C 16.1 51.07 16.04 51.09 15.9800005 51.13C 15.92 51.170002 15.88 51.22 15.860001 51.280003C 15.84 51.340004 15.830001 51.460003 15.830001 51.640003L15.830001 51.640003L15.830001 52.340004L15.420001 52.340004L15.420001 50.790005L15.800001 50.790005L15.800001 51.020004C 15.9400015 50.850006 16.11 50.760006 16.310001 50.760006C 16.400002 50.760006 16.480001 50.780006 16.560001 50.810005C 16.630001 50.840004 16.69 50.880005 16.730001 50.930004C 16.770002 50.980003 16.800001 51.040005 16.810001 51.100002C 16.830002 51.160004 16.830002 51.260002 16.830002 51.38L16.830002 51.38L16.830002 52.34L16.84 52.33z" stroke="none" fill="#10298E" fill-rule="nonzero" />
            <path d="M17.68 50.2L17.68 50.99C 17.81 50.84 17.970001 50.760002 18.15 50.760002C 18.24 50.760002 18.33 50.780003 18.4 50.81C 18.48 50.84 18.529999 50.890003 18.57 50.940002C 18.61 50.99 18.63 51.050003 18.65 51.120003C 18.66 51.190002 18.67 51.29 18.67 51.430004L18.67 51.430004L18.67 52.340004L18.26 52.340004L18.26 51.520004C 18.26 51.360004 18.26 51.250004 18.24 51.210003C 18.22 51.170002 18.199999 51.13 18.16 51.110004C 18.119999 51.080006 18.07 51.070004 18.01 51.070004C 17.94 51.070004 17.880001 51.090004 17.83 51.120003C 17.78 51.15 17.74 51.200005 17.71 51.270004C 17.689999 51.340004 17.669998 51.440002 17.669998 51.570004L17.669998 51.570004L17.669998 52.350002L17.259998 52.350002L17.259998 50.210003L17.669998 50.210003L17.68 50.2z" stroke="none" fill="#10298E" fill-rule="nonzero" />
            <path d="M20.01 51.84L20.42 51.91C 20.37 52.06 20.28 52.17 20.17 52.25C 20.06 52.33 19.92 52.37 19.75 52.37C 19.48 52.37 19.28 52.28 19.15 52.11C 19.05 51.97 19 51.79 19 51.58C 19 51.320004 19.07 51.120003 19.2 50.980003C 19.33 50.83 19.5 50.760002 19.710001 50.760002C 19.94 50.760002 20.12 50.840004 20.250002 50.99C 20.380001 51.140003 20.450003 51.370003 20.440002 51.690002L20.440002 51.690002L19.410002 51.690002C 19.410002 51.81 19.450003 51.910004 19.510002 51.97C 19.570002 52.04 19.650002 52.07 19.750002 52.07C 19.810001 52.07 19.870003 52.05 19.910002 52.02C 19.950003 51.98 19.990002 51.93 20.010002 51.850002L20.010002 51.850002L20.01 51.84zM20.03 51.43C 20.03 51.31 20 51.22 19.94 51.16C 19.880001 51.1 19.810001 51.07 19.730001 51.07C 19.640001 51.07 19.570002 51.1 19.510002 51.17C 19.450003 51.23 19.420002 51.32 19.420002 51.44L19.420002 51.44L20.030003 51.44z" stroke="none" fill="#10298E" fill-rule="nonzero" />
            <path d="M20.8 50.2L21.21 50.2L21.21 50.58L20.8 50.58L20.8 50.2zM20.8 50.79L21.21 50.79L21.21 52.34L20.8 52.34L20.8 50.79z" stroke="none" fill="#10298E" fill-rule="nonzero" />
            <path d="M22.36 50.79L22.36 51.120003L22.08 51.120003L22.08 51.74C 22.08 51.870003 22.08 51.940002 22.08 51.960003L22.08 51.960003L22.12 52.010002L22.19 52.030003C 22.19 52.030003 22.28 52.020004 22.35 51.99L22.35 51.99L22.390001 52.31C 22.29 52.350002 22.19 52.370003 22.070002 52.370003C 22.000002 52.370003 21.930002 52.360004 21.87 52.33C 21.810001 52.31 21.77 52.27 21.740002 52.230003C 21.710001 52.190002 21.690002 52.140003 21.680002 52.070004C 21.680002 52.020004 21.670002 51.930004 21.670002 51.780003L21.670002 51.780003L21.670002 51.110004L21.480001 51.110004L21.480001 50.780003L21.670002 50.780003L21.670002 50.47L22.080002 50.23L22.080002 50.78L22.360003 50.78L22.36 50.79z" stroke="none" fill="#10298E" fill-rule="nonzero" />
            <path d="M22.66 50.2L23.07 50.2L23.07 52.34L22.66 52.34L22.66 50.2z" stroke="none" fill="#10298E" fill-rule="nonzero" />
            <path d="M23.51 50.2L23.92 50.2L23.92 50.58L23.51 50.58L23.51 50.2zM23.51 50.79L23.92 50.79L23.92 52.34L23.51 52.34L23.51 50.79z" stroke="none" fill="#10298E" fill-rule="nonzero" />
            <path d="M25.71 51.24L25.31 51.31C 25.3 51.23 25.269999 51.170002 25.22 51.13C 25.17 51.09 25.109999 51.07 25.029999 51.07C 24.929998 51.07 24.849998 51.11 24.789999 51.18C 24.73 51.25 24.699999 51.37 24.699999 51.53C 24.699999 51.71 24.73 51.84 24.789999 51.92C 24.849998 51.999996 24.929998 52.03 25.039999 52.03C 25.119999 52.03 25.179998 52.01 25.23 51.96C 25.28 51.91 25.31 51.84 25.34 51.73L25.34 51.73L25.74 51.8C 25.699999 51.98 25.619999 52.12 25.5 52.219997C 25.38 52.309998 25.22 52.359997 25.02 52.359997C 24.79 52.359997 24.61 52.289997 24.48 52.149998C 24.35 52.01 24.279999 51.809998 24.279999 51.559998C 24.279999 51.309998 24.349998 51.109997 24.48 50.96C 24.619999 50.82 24.8 50.75 25.029999 50.75C 25.22 50.75 25.369999 50.79 25.48 50.87C 25.59 50.95 25.67 51.07 25.72 51.239998" stroke="none" fill="#10298E" fill-rule="nonzero" />
            <path d="M26.45 50.2L26.45 50.99C 26.58 50.84 26.740002 50.760002 26.92 50.760002C 27.01 50.760002 27.1 50.780003 27.17 50.81C 27.25 50.84 27.3 50.890003 27.34 50.940002C 27.380001 50.99 27.4 51.050003 27.42 51.120003C 27.43 51.190002 27.44 51.29 27.44 51.430004L27.44 51.430004L27.44 52.340004L27.03 52.340004L27.03 51.520004C 27.03 51.360004 27.03 51.250004 27.01 51.210003C 26.99 51.170002 26.97 51.13 26.93 51.110004C 26.89 51.080006 26.84 51.070004 26.78 51.070004C 26.710001 51.070004 26.650002 51.090004 26.6 51.120003C 26.550001 51.15 26.51 51.200005 26.48 51.270004C 26.46 51.340004 26.439999 51.440002 26.439999 51.570004L26.439999 51.570004L26.439999 52.350002L26.029999 52.350002L26.029999 50.210003L26.439999 50.210003L26.45 50.2z" stroke="none" fill="#10298E" fill-rule="nonzero" />
            <path d="M28.78 51.84L29.19 51.91C 29.140001 52.06 29.050001 52.17 28.94 52.25C 28.83 52.33 28.69 52.37 28.52 52.37C 28.25 52.37 28.050001 52.28 27.92 52.11C 27.82 51.97 27.77 51.79 27.77 51.58C 27.77 51.320004 27.84 51.120003 27.970001 50.980003C 28.1 50.83 28.27 50.760002 28.480001 50.760002C 28.710001 50.760002 28.890001 50.840004 29.020002 50.99C 29.150002 51.140003 29.220003 51.370003 29.210003 51.690002L29.210003 51.690002L28.180002 51.690002C 28.180002 51.81 28.220003 51.910004 28.280003 51.97C 28.340002 52.04 28.420002 52.07 28.520002 52.07C 28.580002 52.07 28.640003 52.05 28.680002 52.02C 28.720003 51.98 28.760002 51.93 28.780003 51.850002L28.780003 51.850002L28.78 51.84zM28.800001 51.43C 28.800001 51.31 28.77 51.22 28.710001 51.16C 28.650002 51.1 28.580002 51.07 28.500002 51.07C 28.410002 51.07 28.340002 51.1 28.280003 51.17C 28.220003 51.23 28.190002 51.32 28.190002 51.44L28.190002 51.44L28.800003 51.44z" stroke="none" fill="#10298E" fill-rule="nonzero" />
            <path d="M29.96 52.33L29.55 52.33L29.55 50.780003L29.929998 50.780003L29.929998 51.000004C 29.999998 50.900005 30.05 50.830006 30.109999 50.790005C 30.159998 50.760006 30.22 50.740005 30.289999 50.740005C 30.38 50.740005 30.47 50.770004 30.56 50.820007L30.56 50.820007L30.43 51.180008C 30.36 51.140007 30.300001 51.11001 30.24 51.11001C 30.179998 51.11001 30.13 51.13001 30.09 51.160007C 30.05 51.190006 30.02 51.250008 30 51.330006C 29.98 51.410007 29.97 51.590004 29.97 51.850006L29.97 51.850006L29.97 52.330006L29.96 52.33z" stroke="none" fill="#10298E" fill-rule="nonzero" />
            <path d="M31.6 52.33L31.6 50.190002L33.18 50.190002L33.18 50.550003L32.03 50.550003L32.03 51.020004L33.1 51.020004L33.1 51.380005L32.03 51.380005L32.03 51.960007L33.219997 51.960007L33.219997 52.320007L31.599997 52.320007L31.6 52.33z" stroke="none" fill="#10298E" fill-rule="nonzero" />
            <path d="M34.63 52.33L34.63 52.100002C 34.57 52.180004 34.5 52.250004 34.41 52.29C 34.32 52.34 34.22 52.36 34.12 52.36C 34.019997 52.36 33.92 52.34 33.84 52.29C 33.76 52.24 33.7 52.18 33.66 52.100002C 33.62 52.02 33.6 51.9 33.6 51.760002L33.6 51.760002L33.6 50.780003L34.01 50.780003L34.01 51.49C 34.01 51.710003 34.01 51.84 34.03 51.890003C 34.05 51.940002 34.07 51.980003 34.11 52.010002C 34.15 52.04 34.2 52.050003 34.260002 52.050003C 34.33 52.050003 34.390003 52.030003 34.45 51.99C 34.510002 51.95 34.54 51.9 34.56 51.850002C 34.58 51.79 34.59 51.65 34.59 51.430004L34.59 51.430004L34.59 50.780003L35 50.780003L35 52.33L34.62 52.33L34.63 52.33z" stroke="none" fill="#10298E" fill-rule="nonzero" />
            <path d="M35.84 52.33L35.43 52.33L35.43 50.780003L35.81 50.780003L35.81 51.000004C 35.88 50.900005 35.93 50.830006 35.99 50.790005C 36.04 50.760006 36.100002 50.740005 36.170002 50.740005C 36.260002 50.740005 36.350002 50.770004 36.440002 50.820007L36.440002 50.820007L36.31 51.180008C 36.24 51.140007 36.18 51.11001 36.120003 51.11001C 36.060005 51.11001 36.010002 51.13001 35.97 51.160007C 35.93 51.190006 35.9 51.250008 35.88 51.330006C 35.86 51.410007 35.850002 51.590004 35.850002 51.850006L35.850002 51.850006L35.850002 52.330006L35.84 52.33z" stroke="none" fill="#10298E" fill-rule="nonzero" />
            <path d="M36.54 51.54C 36.54 51.4 36.57 51.27 36.64 51.14C 36.71 51.01 36.8 50.92 36.92 50.85C 37.039997 50.78 37.179996 50.75 37.329998 50.75C 37.559998 50.75 37.76 50.83 37.91 50.98C 38.06 51.13 38.13 51.32 38.13 51.56C 38.13 51.800003 38.05 51.99 37.9 52.140003C 37.750004 52.290005 37.56 52.370003 37.33 52.370003C 37.190002 52.370003 37.050003 52.340004 36.920002 52.270004C 36.79 52.210003 36.690002 52.110004 36.63 51.990005C 36.56 51.870007 36.530003 51.720005 36.530003 51.540005M36.95 51.560005C 36.95 51.710007 36.99 51.830006 37.06 51.910004C 37.13 51.990005 37.22 52.030003 37.33 52.030003C 37.440002 52.030003 37.530003 51.99 37.600002 51.910004C 37.670002 51.83 37.710003 51.710003 37.710003 51.550003C 37.710003 51.390003 37.670002 51.280003 37.600002 51.200005C 37.530003 51.120003 37.440002 51.080006 37.33 51.080006C 37.22 51.080006 37.13 51.120007 37.06 51.200005C 36.99 51.280006 36.95 51.400005 36.95 51.550003" stroke="none" fill="#10298E" fill-rule="nonzero" />
            <path d="M38.43 51.35L39.23 51.35L39.23 51.76L38.43 51.76L38.43 51.35z" stroke="none" fill="#10298E" fill-rule="nonzero" />
            <path d="M39.31 52.33L39.31 51.940002L40.43 50.550003L39.43 50.550003L39.43 50.190002L40.99 50.190002L40.99 50.530003L39.820004 51.97L41.030003 51.97L41.030003 52.33L39.29 52.33L39.31 52.33z" stroke="none" fill="#10298E" fill-rule="nonzero" />
            <path d="M41.64 51.26L41.27 51.19C 41.31 51.039997 41.38 50.93 41.49 50.859997C 41.59 50.789997 41.74 50.749996 41.940002 50.749996C 42.120003 50.749996 42.260002 50.769997 42.350002 50.809998C 42.440002 50.85 42.500004 50.909996 42.54 50.969997C 42.58 51.039997 42.59 51.159996 42.59 51.339996L42.59 51.339996L42.59 51.819996C 42.59 51.959995 42.59 52.059998 42.61 52.119995C 42.62 52.179996 42.65 52.249996 42.68 52.329994L42.68 52.329994L42.28 52.329994C 42.28 52.329994 42.26 52.259995 42.239998 52.209995L42.239998 52.209995L42.239998 52.159996C 42.159996 52.229996 42.079998 52.279995 41.999996 52.309998C 41.919994 52.339996 41.839996 52.359997 41.749996 52.359997C 41.589996 52.359997 41.469997 52.319996 41.369995 52.229996C 41.279995 52.139996 41.229996 52.029995 41.229996 51.899994C 41.229996 51.809994 41.249996 51.729996 41.289997 51.669994C 41.329998 51.599995 41.389996 51.549995 41.469997 51.509995C 41.55 51.469994 41.649998 51.439995 41.8 51.409996C 41.989998 51.369995 42.12 51.339996 42.2 51.309998L42.2 51.309998L42.2 51.269997C 42.2 51.189995 42.18 51.139996 42.14 51.1C 42.1 51.07 42.03 51.05 41.92 51.05C 41.85 51.05 41.789997 51.059998 41.75 51.09C 41.71 51.12 41.68 51.170002 41.65 51.24L41.65 51.24L41.64 51.26zM42.19 51.59C 42.14 51.61 42.05 51.63 41.94 51.65C 41.829998 51.670002 41.75 51.7 41.719997 51.72C 41.67 51.760002 41.639996 51.81 41.639996 51.86C 41.639996 51.91 41.659996 51.97 41.699997 52.010002C 41.739998 52.050003 41.799995 52.070004 41.859997 52.070004C 41.929996 52.070004 41.999996 52.050003 42.069996 52.000004C 42.119995 51.960003 42.149998 51.920002 42.169994 51.860004C 42.179993 51.820004 42.189995 51.760006 42.189995 51.660004L42.189995 51.660004L42.189995 51.58z" stroke="none" fill="#10298E" fill-rule="nonzero" />
            <path d="M43.42 50.2L43.42 50.99C 43.55 50.84 43.71 50.760002 43.89 50.760002C 43.98 50.760002 44.07 50.780003 44.14 50.81C 44.22 50.84 44.27 50.890003 44.309998 50.940002C 44.35 50.99 44.37 51.050003 44.39 51.120003C 44.399998 51.190002 44.41 51.29 44.41 51.430004L44.41 51.430004L44.41 52.340004L44 52.340004L44 51.520004C 44 51.360004 44 51.250004 43.98 51.210003C 43.96 51.170002 43.94 51.13 43.899998 51.110004C 43.859997 51.080006 43.809998 51.070004 43.749996 51.070004C 43.679996 51.070004 43.619995 51.090004 43.569996 51.120003C 43.519997 51.15 43.479996 51.200005 43.449997 51.270004C 43.429996 51.340004 43.409996 51.440002 43.409996 51.570004L43.409996 51.570004L43.409996 52.350002L42.999996 52.350002L42.999996 50.210003L43.409996 50.210003L43.42 50.2z" stroke="none" fill="#10298E" fill-rule="nonzero" />
            <path d="M44.86 50.2L45.27 50.2L45.27 52.34L44.86 52.34L44.86 50.2z" stroke="none" fill="#10298E" fill-rule="nonzero" />
            <path d="M46.73 52.33L46.73 52.100002C 46.67 52.180004 46.6 52.250004 46.51 52.29C 46.42 52.34 46.32 52.36 46.219997 52.36C 46.119995 52.36 46.019997 52.34 45.94 52.29C 45.859997 52.24 45.8 52.18 45.76 52.100002C 45.719997 52.02 45.699997 51.9 45.699997 51.760002L45.699997 51.760002L45.699997 50.780003L46.109997 50.780003L46.109997 51.49C 46.109997 51.710003 46.109997 51.84 46.129997 51.890003C 46.139996 51.940002 46.17 51.980003 46.21 52.010002C 46.25 52.04 46.3 52.050003 46.36 52.050003C 46.43 52.050003 46.49 52.030003 46.55 51.99C 46.61 51.95 46.64 51.9 46.66 51.850002C 46.68 51.79 46.69 51.65 46.69 51.430004L46.69 51.430004L46.69 50.780003L47.1 50.780003L47.1 52.33L46.719997 52.33L46.73 52.33z" stroke="none" fill="#10298E" fill-rule="nonzero" />
            <path d="M48.96 52.33L48.55 52.33L48.55 51.54C 48.55 51.370003 48.55 51.260002 48.52 51.22C 48.5 51.170002 48.47 51.13 48.43 51.11C 48.39 51.08 48.34 51.07 48.29 51.07C 48.22 51.07 48.16 51.09 48.100002 51.13C 48.04 51.170002 48.010002 51.22 47.980003 51.280003C 47.960003 51.340004 47.950005 51.460003 47.950005 51.640003L47.950005 51.640003L47.950005 52.340004L47.540005 52.340004L47.540005 50.790005L47.920006 50.790005L47.920006 51.020004C 48.060005 50.850006 48.220005 50.760006 48.430004 50.760006C 48.520004 50.760006 48.600002 50.780006 48.680004 50.810005C 48.750004 50.840004 48.810005 50.880005 48.850002 50.930004C 48.890003 50.980003 48.910004 51.040005 48.930004 51.100002C 48.940002 51.160004 48.950005 51.260002 48.950005 51.38L48.950005 51.38L48.950005 52.34L48.96 52.33z" stroke="none" fill="#10298E" fill-rule="nonzero" />
            <path d="M49.36 52.44L49.83 52.5C 49.83 52.55 49.86 52.59 49.88 52.61C 49.920002 52.64 49.98 52.65 50.06 52.65C 50.170002 52.65 50.25 52.63 50.300003 52.600002C 50.340004 52.58 50.360004 52.54 50.380005 52.500004C 50.390003 52.470005 50.400005 52.400005 50.400005 52.310005L50.400005 52.310005L50.400005 52.080006C 50.280006 52.250004 50.120007 52.330006 49.940006 52.330006C 49.730007 52.330006 49.570007 52.240005 49.450005 52.070007C 49.360004 51.930008 49.310005 51.760006 49.310005 51.550007C 49.310005 51.29001 49.370007 51.090008 49.500004 50.960007C 49.620003 50.820007 49.780003 50.750008 49.970005 50.750008C 50.160007 50.750008 50.320004 50.83001 50.440006 51.000008L50.440006 51.000008L50.440006 50.780006L50.820007 50.780006L50.820007 52.170006C 50.820007 52.350006 50.81001 52.490005 50.780006 52.580006C 50.750008 52.670006 50.710007 52.740005 50.650005 52.790005C 50.600006 52.840004 50.520004 52.880005 50.430004 52.910004C 50.340004 52.940002 50.220005 52.950005 50.090004 52.950005C 49.830006 52.950005 49.640003 52.910004 49.530003 52.820004C 49.420002 52.730003 49.370003 52.620003 49.370003 52.480003L49.370003 52.480003L49.370003 52.430004L49.36 52.44zM49.73 51.53C 49.73 51.69 49.76 51.809998 49.829998 51.89C 49.89 51.97 49.969997 52 50.07 52C 50.17 52 50.25 51.96 50.32 51.88C 50.39 51.800003 50.42 51.690002 50.42 51.530003C 50.42 51.370003 50.39 51.250004 50.32 51.170002C 50.25 51.09 50.17 51.050003 50.07 51.050003C 49.97 51.050003 49.89 51.090004 49.829998 51.160004C 49.769997 51.240005 49.73 51.350002 49.73 51.510002" stroke="none" fill="#10298E" fill-rule="nonzero" />
            <path d="M51.09 51.89L51.5 51.829998C 51.52 51.91 51.55 51.969997 51.61 52.01C 51.670002 52.05 51.74 52.07 51.83 52.07C 51.940002 52.07 52.02 52.05 52.070004 52.01C 52.110004 51.98 52.120003 51.949997 52.120003 51.899998L52.120003 51.899998L52.090004 51.819996C 52.090004 51.819996 52.020004 51.779995 51.950005 51.769997C 51.620003 51.699997 51.410004 51.629997 51.320004 51.569996C 51.200005 51.489994 51.140003 51.369995 51.140003 51.219997C 51.140003 51.089996 51.190002 50.969997 51.300003 50.879997C 51.410004 50.789997 51.570004 50.739998 51.790005 50.739998C 52.010006 50.739998 52.160004 50.769997 52.260006 50.839996C 52.360004 50.909996 52.430004 51.009995 52.470005 51.149998L52.470005 51.149998L52.080006 51.219997C 52.060005 51.159996 52.030006 51.109997 51.990005 51.079998C 51.940006 51.05 51.880005 51.03 51.790005 51.03C 51.680004 51.03 51.610004 51.05 51.560005 51.079998L51.560005 51.079998L51.510006 51.16L51.550007 51.23C 51.550007 51.23 51.710007 51.3 51.930008 51.35C 52.15001 51.399998 52.300007 51.46 52.390007 51.53C 52.480007 51.6 52.520008 51.699997 52.520008 51.829998C 52.520008 51.969997 52.460007 52.089996 52.340008 52.199997C 52.22001 52.299995 52.050007 52.35 51.81001 52.35C 51.60001 52.35 51.430008 52.309998 51.31001 52.219997C 51.19001 52.129997 51.11001 52.019997 51.070007 51.87" stroke="none" fill="#10298E" fill-rule="nonzero" />
            <path d="M53.34 52.33L52.72 50.780003L53.15 50.780003L53.440002 51.570004L53.520004 51.83C 53.540005 51.760002 53.560005 51.72 53.560005 51.7C 53.570004 51.66 53.590004 51.61 53.600006 51.57L53.600006 51.57L53.890007 50.78L54.310005 50.78L53.700005 52.329998L53.330006 52.329998L53.34 52.33z" stroke="none" fill="#10298E" fill-rule="nonzero" />
            <path d="M55.5 51.84L55.91 51.91C 55.86 52.06 55.77 52.17 55.66 52.25C 55.55 52.33 55.41 52.37 55.24 52.37C 54.97 52.37 54.77 52.28 54.640003 52.11C 54.540005 51.97 54.49 51.79 54.49 51.58C 54.49 51.320004 54.56 51.120003 54.690002 50.980003C 54.820004 50.83 54.99 50.760002 55.2 50.760002C 55.43 50.760002 55.61 50.840004 55.74 50.99C 55.870003 51.140003 55.940002 51.370003 55.93 51.690002L55.93 51.690002L54.9 51.690002C 54.9 51.81 54.940002 51.910004 55 51.97C 55.06 52.04 55.14 52.07 55.24 52.07C 55.300003 52.07 55.36 52.05 55.4 52.02C 55.440002 51.98 55.480003 51.93 55.5 51.850002L55.5 51.850002L55.5 51.84zM55.52 51.43C 55.52 51.31 55.49 51.22 55.43 51.16C 55.37 51.1 55.3 51.07 55.22 51.07C 55.13 51.07 55.06 51.1 55 51.17C 54.94 51.23 54.91 51.32 54.91 51.44L54.91 51.44L55.52 51.44z" stroke="none" fill="#10298E" fill-rule="nonzero" />
            <path d="M56.67 52.33L56.26 52.33L56.26 50.780003L56.64 50.780003L56.64 51.000004C 56.71 50.900005 56.76 50.830006 56.82 50.790005C 56.87 50.760006 56.93 50.740005 57 50.740005C 57.09 50.740005 57.18 50.770004 57.27 50.820007L57.27 50.820007L57.14 51.180008C 57.07 51.140007 57.01 51.11001 56.95 51.11001C 56.890003 51.11001 56.84 51.13001 56.8 51.160007C 56.76 51.190006 56.73 51.250008 56.71 51.330006C 56.69 51.410007 56.68 51.590004 56.68 51.850006L56.68 51.850006L56.68 52.330006L56.67 52.33z" stroke="none" fill="#10298E" fill-rule="nonzero" />
            <path d="M57.45 52.33L57.45 50.190002L57.86 50.190002L57.86 51.320004L58.34 50.780003L58.84 50.780003L58.31 51.350002L58.88 52.33L58.440002 52.33L58.050003 51.63L57.860004 51.83L57.860004 52.33L57.450005 52.33L57.45 52.33z" stroke="none" fill="#10298E" fill-rule="nonzero" />
            <path d="M60.04 51.84L60.45 51.91C 60.4 52.06 60.31 52.17 60.2 52.25C 60.09 52.33 59.95 52.37 59.780003 52.37C 59.510002 52.37 59.31 52.28 59.180004 52.11C 59.080006 51.97 59.030003 51.79 59.030003 51.58C 59.030003 51.320004 59.100002 51.120003 59.230003 50.980003C 59.360004 50.83 59.530003 50.760002 59.74 50.760002C 59.97 50.760002 60.15 50.840004 60.280003 50.99C 60.410004 51.140003 60.480003 51.370003 60.47 51.690002L60.47 51.690002L59.440002 51.690002C 59.440002 51.81 59.480003 51.910004 59.54 51.97C 59.600002 52.04 59.68 52.07 59.780003 52.07C 59.840004 52.07 59.9 52.05 59.940002 52.02C 59.980003 51.98 60.020004 51.93 60.04 51.850002L60.04 51.850002L60.04 51.84zM60.06 51.43C 60.06 51.31 60.030003 51.22 59.97 51.16C 59.91 51.1 59.84 51.07 59.760002 51.07C 59.670002 51.07 59.600002 51.1 59.54 51.17C 59.48 51.23 59.45 51.32 59.45 51.44L59.45 51.44L60.06 51.44z" stroke="none" fill="#10298E" fill-rule="nonzero" />
            <path d="M61.23 50.2L61.23 50.99C 61.36 50.84 61.52 50.760002 61.7 50.760002C 61.79 50.760002 61.88 50.780003 61.95 50.81C 62.030003 50.84 62.08 50.890003 62.12 50.940002C 62.16 50.99 62.18 51.050003 62.2 51.120003C 62.21 51.190002 62.22 51.29 62.22 51.430004L62.22 51.430004L62.22 52.340004L61.81 52.340004L61.81 51.520004C 61.81 51.360004 61.81 51.250004 61.79 51.210003C 61.77 51.170002 61.75 51.13 61.71 51.110004C 61.67 51.080006 61.62 51.070004 61.559998 51.070004C 61.489998 51.070004 61.429996 51.090004 61.379997 51.120003C 61.329998 51.15 61.289997 51.200005 61.26 51.270004C 61.239998 51.340004 61.219997 51.440002 61.219997 51.570004L61.219997 51.570004L61.219997 52.350002L60.809998 52.350002L60.809998 50.210003L61.219997 50.210003L61.23 50.2z" stroke="none" fill="#10298E" fill-rule="nonzero" />
            <path d="M63.06 52.33L62.65 52.33L62.65 50.780003L63.030003 50.780003L63.030003 51.000004C 63.100002 50.900005 63.15 50.830006 63.210003 50.790005C 63.260002 50.760006 63.320004 50.740005 63.390003 50.740005C 63.480003 50.740005 63.570004 50.770004 63.660004 50.820007L63.660004 50.820007L63.530003 51.180008C 63.460003 51.140007 63.4 51.11001 63.340004 51.11001C 63.280006 51.11001 63.230003 51.13001 63.190002 51.160007C 63.15 51.190006 63.120003 51.250008 63.100002 51.330006C 63.08 51.410007 63.070004 51.590004 63.070004 51.850006L63.070004 51.850006L63.070004 52.330006L63.06 52.33z" stroke="none" fill="#10298E" fill-rule="nonzero" />
            <path d="M63.7 51.89L64.11 51.829998C 64.13 51.91 64.16 51.969997 64.22 52.01C 64.28 52.05 64.35 52.07 64.44 52.07C 64.55 52.07 64.630005 52.05 64.68 52.01C 64.72 51.98 64.73 51.949997 64.73 51.899998L64.73 51.899998L64.700005 51.819996C 64.700005 51.819996 64.630005 51.779995 64.560005 51.769997C 64.23 51.699997 64.020004 51.629997 63.930004 51.569996C 63.810005 51.489994 63.750004 51.369995 63.750004 51.219997C 63.750004 51.089996 63.800003 50.969997 63.910004 50.879997C 64.020004 50.789997 64.18 50.739998 64.4 50.739998C 64.62 50.739998 64.770004 50.769997 64.87 50.839996C 64.97 50.909996 65.04 51.009995 65.08 51.149998L65.08 51.149998L64.69 51.219997C 64.670006 51.159996 64.64 51.109997 64.600006 51.079998C 64.55 51.05 64.490005 51.03 64.40001 51.03C 64.29001 51.03 64.22001 51.05 64.170006 51.079998L64.170006 51.079998L64.12 51.16L64.16 51.23C 64.16 51.23 64.32001 51.3 64.54 51.35C 64.76 51.399998 64.91 51.46 65 51.53C 65.09 51.6 65.13 51.699997 65.13 51.829998C 65.13 51.969997 65.07 52.089996 64.95 52.199997C 64.829994 52.299995 64.659996 52.35 64.42 52.35C 64.21 52.35 64.04 52.309998 63.92 52.219997C 63.799995 52.129997 63.719997 52.019997 63.679996 51.87" stroke="none" fill="#10298E" fill-rule="nonzero" />
            <path d="M65.92 52.33L65.509995 52.33L65.509995 50.780003L65.88999 50.780003L65.88999 51.000004C 65.95999 50.900005 66.009995 50.830006 66.06999 50.790005C 66.119995 50.760006 66.17999 50.740005 66.24999 50.740005C 66.33999 50.740005 66.42999 50.770004 66.51999 50.820007L66.51999 50.820007L66.38999 51.180008C 66.31999 51.140007 66.259995 51.11001 66.19999 51.11001C 66.139984 51.11001 66.08999 51.13001 66.04999 51.160007C 66.00999 51.190006 65.97999 51.250008 65.95999 51.330006C 65.939995 51.410007 65.92999 51.590004 65.92999 51.850006L65.92999 51.850006L65.92999 52.330006L65.92 52.33z" stroke="none" fill="#10298E" fill-rule="nonzero" />
            <path d="M67.02 51.26L66.649994 51.19C 66.689995 51.039997 66.759995 50.93 66.869995 50.859997C 66.96999 50.789997 67.119995 50.749996 67.31999 50.749996C 67.49999 50.749996 67.63999 50.769997 67.729996 50.809998C 67.81999 50.85 67.88 50.909996 67.92 50.969997C 67.96 51.039997 67.97 51.159996 67.97 51.339996L67.97 51.339996L67.97 51.819996C 67.97 51.959995 67.97 52.059998 67.99 52.119995C 68 52.179996 68.03 52.249996 68.06 52.329994L68.06 52.329994L67.659996 52.329994C 67.659996 52.329994 67.64 52.259995 67.619995 52.209995L67.619995 52.209995L67.619995 52.159996C 67.53999 52.229996 67.45999 52.279995 67.38 52.309998C 67.299995 52.339996 67.21999 52.359997 67.13 52.359997C 66.96999 52.359997 66.85 52.319996 66.75 52.229996C 66.66 52.139996 66.61 52.029995 66.61 51.899994C 66.61 51.809994 66.63 51.729996 66.67 51.669994C 66.71 51.599995 66.77 51.549995 66.85 51.509995C 66.92 51.469994 67.03 51.439995 67.18 51.409996C 67.37 51.369995 67.5 51.339996 67.58 51.309998L67.58 51.309998L67.58 51.269997C 67.58 51.189995 67.560005 51.139996 67.520004 51.1C 67.48 51.07 67.41 51.05 67.3 51.05C 67.23 51.05 67.170006 51.059998 67.130005 51.09C 67.090004 51.12 67.060005 51.170002 67.03001 51.24L67.03001 51.24L67.02 51.26zM67.57 51.59C 67.52 51.61 67.43 51.63 67.32 51.65C 67.21 51.670002 67.13 51.7 67.1 51.72C 67.049995 51.760002 67.02 51.81 67.02 51.86C 67.02 51.91 67.03999 51.97 67.079994 52.010002C 67.119995 52.050003 67.17999 52.070004 67.24 52.070004C 67.31 52.070004 67.38 52.050003 67.45 52.000004C 67.5 51.960003 67.53 51.920002 67.549995 51.860004C 67.56 51.820004 67.56999 51.760006 67.56999 51.660004L67.56999 51.660004L67.56999 51.58z" stroke="none" fill="#10298E" fill-rule="nonzero" />
            <path d="M69.41 52.33L69.41 52.100002C 69.350006 52.180004 69.28001 52.250004 69.19 52.29C 69.100006 52.34 69 52.36 68.9 52.36C 68.8 52.36 68.700005 52.34 68.62 52.29C 68.54 52.24 68.48 52.18 68.44 52.100002C 68.4 52.02 68.380005 51.9 68.380005 51.760002L68.380005 51.760002L68.380005 50.780003L68.79001 50.780003L68.79001 51.49C 68.79001 51.710003 68.79001 51.84 68.810005 51.890003C 68.83 51.940002 68.850006 51.980003 68.89001 52.010002C 68.93001 52.04 68.98 52.050003 69.04001 52.050003C 69.11001 52.050003 69.170006 52.030003 69.23001 51.99C 69.29001 51.95 69.32001 51.9 69.34001 51.850002C 69.36001 51.79 69.37001 51.65 69.37001 51.430004L69.37001 51.430004L69.37001 50.780003L69.780014 50.780003L69.780014 52.33L69.40002 52.33L69.41 52.33z" stroke="none" fill="#10298E" fill-rule="nonzero" />
            <path d="M70.2 50.79L70.579994 50.79L70.579994 51C 70.71999 50.84 70.88 50.75 71.06 50.75C 71.159996 50.75 71.25 50.77 71.32 50.81C 71.39 50.850002 71.45 50.91 71.5 51C 71.57 50.92 71.64 50.86 71.72 50.81C 71.8 50.77 71.880005 50.75 71.97 50.75C 72.08 50.75 72.18 50.77 72.26 50.82C 72.340004 50.87 72.4 50.93 72.44 51.02C 72.47 51.09 72.48 51.19 72.48 51.34L72.48 51.34L72.48 52.33L72.07 52.33L72.07 51.45C 72.07 51.3 72.06 51.2 72.03 51.15C 71.99 51.09 71.93 51.06 71.86 51.06C 71.8 51.06 71.75 51.08 71.7 51.11C 71.649994 51.14 71.61 51.2 71.59 51.260002C 71.57 51.33 71.56 51.43 71.56 51.58L71.56 51.58L71.56 52.320004L71.149994 52.320004L71.149994 51.470005C 71.149994 51.320004 71.149994 51.220005 71.13 51.180004C 71.119995 51.140003 71.09 51.100002 71.06 51.080006C 71.03 51.060005 70.99 51.050007 70.939995 51.050007C 70.88 51.050007 70.81999 51.070007 70.77 51.100006C 70.71999 51.130005 70.68 51.180008 70.659996 51.250008C 70.64 51.31001 70.63 51.420006 70.63 51.570007L70.63 51.570007L70.63 52.320007L70.21999 52.320007L70.21999 50.770008L70.2 50.79z" stroke="none" fill="#10298E" fill-rule="nonzero" />
            <path d="M25.83 37.27L21.72 37.27C 21.72 36.600002 21.64 36.14 21.48 35.91C 21.24 35.57 20.56 35.4 19.46 35.4C 18.359999 35.4 17.679998 35.5 17.329998 35.690002C 16.979998 35.890003 16.809998 36.320004 16.809998 36.97C 16.809998 37.57 16.959997 37.960003 17.269997 38.15C 17.489996 38.280003 17.779997 38.36 18.149996 38.390003L18.149996 38.390003L18.979996 38.450005C 20.749996 38.570004 21.859997 38.650005 22.299995 38.700005C 23.699995 38.840004 24.719995 39.210003 25.349995 39.820004C 25.849995 40.290005 26.139996 40.910004 26.239994 41.670002C 26.299994 42.13 26.319994 42.640003 26.319994 43.210003C 26.319994 44.530003 26.189995 45.500004 25.939995 46.110004C 25.479996 47.230003 24.459995 47.940006 22.859995 48.240005C 22.189995 48.370007 21.169994 48.430004 19.789995 48.430004C 17.489996 48.430004 15.889996 48.290005 14.979996 48.020004C 13.869996 47.680004 13.139996 47.000004 12.779996 45.970005C 12.579996 45.400005 12.479996 44.440006 12.479996 43.110004L12.479996 43.110004L16.589996 43.110004C 16.589996 43.260006 16.589996 43.370003 16.589996 43.450005C 16.589996 44.160004 16.789997 44.620003 17.199997 44.820004C 17.479998 44.960003 17.819998 45.030003 18.229998 45.040005L18.229998 45.040005L19.739998 45.040005C 20.509998 45.040005 20.999998 45.000004 21.209997 44.920006C 21.589996 44.770004 21.839996 44.530006 21.949997 44.200005C 22.009996 44.000004 22.039997 43.730003 22.039997 43.410004C 22.039997 42.690002 21.779997 42.250004 21.249996 42.090004C 21.049995 42.030003 20.139996 41.940002 18.499996 41.830006C 17.189997 41.740005 16.279997 41.650005 15.769997 41.560005C 14.4299965 41.310005 13.529997 40.790005 13.079996 40.010006C 12.689996 39.340008 12.489996 38.330006 12.489996 36.980007C 12.489996 35.95001 12.599996 35.13001 12.809996 34.510006C 13.019996 33.890007 13.359996 33.420006 13.839995 33.100006C 14.529995 32.610004 15.419995 32.320007 16.499996 32.230007C 17.399996 32.150005 18.389996 32.11001 19.489996 32.11001C 21.209995 32.11001 22.439997 32.210007 23.169996 32.410007C 24.959995 32.890007 25.849997 34.230007 25.849997 36.440006C 25.849997 36.620007 25.839996 36.890007 25.809996 37.250008" stroke="none" fill="#10298E" fill-rule="nonzero" />
            <path d="M43.88 48.43L43.88 32.03L52.100002 32.03C 53.230003 32.03 54.090004 32.12 54.68 32.309998C 56.03 32.729996 56.94 33.6 57.4 34.909996C 57.640003 35.599995 57.760002 36.629997 57.760002 38.019997C 57.760002 39.679996 57.63 40.879997 57.36 41.609997C 56.83 43.049995 55.75 43.879997 54.11 44.089996C 53.920002 44.119995 53.100002 44.149998 51.65 44.17L51.65 44.17L50.920002 44.19L48.29 44.19L48.29 48.42L43.88 48.42L43.88 48.43zM48.29 40.39L51.04 40.39C 51.91 40.36 52.440002 40.29 52.63 40.19C 52.89 40.05 53.07 39.76 53.15 39.329998C 53.210003 39.039997 53.230003 38.62 53.230003 38.05C 53.230003 37.36 53.170002 36.84 53.060005 36.51C 52.900005 36.039997 52.520004 35.75 51.920006 35.649998C 51.800007 35.629997 51.520004 35.629997 51.060005 35.629997L51.060005 35.629997L48.270004 35.629997L48.270004 40.399998z" stroke="none" fill="#10298E" fill-rule="nonzero" />
            <path d="M67.19 45.6L61.29 45.6L60.5 48.43L55.93 48.43L60.86 32.03L67.520004 32.03L72.51 48.43L68.04 48.43L67.200005 45.6L67.19 45.6zM66.310005 42.41L64.240005 35.3L62.230007 42.41L66.30001 42.41z" stroke="none" fill="#10298E" fill-rule="nonzero" />
            <path d="M37.79 34.35C 39.61 34.35 41.23 35.19 42.300003 36.5L42.300003 36.5L43.250004 34.46C 41.760002 33.05 39.740005 32.19 37.500004 32.19C 34.020004 32.19 31.050003 34.289997 29.830004 37.26L29.830004 37.26L27.980003 37.26L26.880003 39.609997L29.270002 39.609997C 29.250002 39.829998 29.240002 40.049995 29.240002 40.269997C 29.240002 40.539997 29.250002 40.809998 29.280003 41.069996L29.280003 41.069996L28.080002 41.069996L26.990002 43.419994L29.890001 43.419994C 31.150002 46.319996 34.08 48.349995 37.510002 48.349995C 39.230003 48.349995 40.840004 47.829994 42.160004 46.949993L42.160004 46.949993L42.160004 44.069992C 41.090004 45.289993 39.530003 46.04999 37.790005 46.04999C 35.760006 46.04999 33.970005 44.999992 32.920006 43.409992L32.920006 43.409992L39.000008 43.409992L40.100006 41.059994L32.030006 41.059994C 31.990005 40.779995 31.970007 40.489994 31.970007 40.189995C 31.970007 39.989994 31.980007 39.789993 32.000008 39.599995L32.000008 39.599995L40.780006 39.599995L41.870007 37.249996L32.750008 37.249996C 33.760006 35.509995 35.640007 34.339996 37.79001 34.339996" stroke="none" fill="#FFBE00" fill-rule="nonzero" />
            <path d="M37.79 34.42C 39.52 34.42 41.15 35.199997 42.25 36.55L42.25 36.55L42.32 36.64L42.37 36.54L43.32 34.5L43.34 34.45L43.3 34.41C 41.739998 32.93 39.68 32.12 37.51 32.12C 35.809998 32.12 34.18 32.62 32.789997 33.55C 31.429996 34.469997 30.389997 35.739998 29.769997 37.23L29.769997 37.23L29.829996 37.19L27.929996 37.19L27.909996 37.23L26.819996 39.579998L26.769997 39.679996L29.269997 39.679996L29.199997 39.599995C 29.179996 39.839996 29.169996 40.059994 29.169996 40.259995C 29.169996 40.519993 29.179996 40.789993 29.209997 41.059994L29.209997 41.059994L29.279997 40.979992L28.039997 40.979992L28.019997 41.019993L26.919996 43.36999L26.869997 43.46999L29.879997 43.46999L29.819998 43.42999C 31.129997 46.44999 34.14 48.39999 37.499996 48.39999C 39.179996 48.39999 40.799995 47.90999 42.189995 46.98999L42.189995 46.98999L42.219994 46.96999L42.219994 43.86999L42.099995 44.00999C 41.009995 45.249992 39.429993 45.96999 37.779995 45.96999C 35.839996 45.96999 34.039993 44.99999 32.969994 43.36999L32.969994 43.36999L32.909992 43.479992L39.039993 43.479992L39.059994 43.43999L40.159992 41.089993L40.20999 40.989994L32.02999 40.989994L32.09999 41.049995C 32.05999 40.769997 32.03999 40.479996 32.03999 40.189995C 32.03999 39.999996 32.03999 39.799995 32.06999 39.609993L32.06999 39.609993L31.999989 39.669994L40.829987 39.669994L40.849987 39.629993L41.939987 37.279995L41.989986 37.179996L32.759987 37.179996L32.81999 37.289997C 33.849987 35.519997 35.74999 34.409996 37.78999 34.409996L37.78999 34.409996L37.79 34.42zM32.75 37.329998L41.87 37.329998L41.809998 37.23L40.719997 39.579998L40.78 39.539997L31.929998 39.539997L31.929998 39.6C 31.899998 39.8 31.889997 40 31.889997 40.199997C 31.889997 40.489998 31.909998 40.789997 31.949997 41.079998L31.949997 41.079998L31.949997 41.14L40.089996 41.14L40.029995 41.04L38.939995 43.39L38.999996 43.35L32.789997 43.35L32.859997 43.46C 33.959995 45.129997 35.799995 46.129997 37.78 46.129997C 39.469997 46.129997 41.079998 45.399998 42.199997 44.12L42.199997 44.12L42.079998 44.07L42.079998 46.95L42.109997 46.89C 40.749996 47.8 39.149998 48.28 37.499996 48.28C 34.199997 48.28 31.239996 46.36 29.949997 43.39L29.949997 43.39L29.929996 43.35L26.979996 43.35L27.039995 43.449997L28.129995 41.1L28.069996 41.14L29.349997 41.14L29.349997 41.059998C 29.319996 40.789997 29.299997 40.53 29.299997 40.269997C 29.299997 40.069996 29.299997 39.859997 29.329998 39.619995L29.329998 39.619995L29.329998 39.539993L26.869999 39.539993L26.929998 39.63999L28.029999 37.289993L27.97 37.329994L29.869999 37.329994L29.89 37.289993C 30.49 35.819992 31.519999 34.569992 32.85 33.669994C 34.219997 32.749996 35.82 32.259995 37.489998 32.259995C 39.629997 32.259995 41.649998 33.059994 43.19 34.509995L43.19 34.509995L43.17 34.429993L42.219997 36.469994L42.339996 36.469994C 41.209995 35.069992 39.549995 34.279995 37.769997 34.279995C 35.679996 34.279995 33.729996 35.409996 32.67 37.229996L32.67 37.229996L32.609997 37.339996L32.729996 37.339996z" stroke="none" fill="#10298E" fill-rule="nonzero" />
		</g>
	</g>
</g>
</svg>
